<?xml version="1.0" encoding="UTF-8"?>
<svg version="1.1" xmlns="http://www.w3.org/2000/svg" width="50" height="50">
<path d="M0 0 C1.13953125 -0.03738281 2.2790625 -0.07476562 3.453125 -0.11328125 C7.43513359 0.40098289 8.87747644 1.57076588 11.75 4.3125 C12.41644531 4.91449219 13.08289062 5.51648438 13.76953125 6.13671875 C17.09131336 9.58876683 19.23334288 12.15762514 19.5 17.0625 C19.2200644 20.45088713 18.9038717 21.14580566 16.5 23.75 C15.5925 24.265625 14.685 24.78125 13.75 25.3125 C13.13125 25.68375 12.5125 26.055 11.875 26.4375 C3.2591648 29.98519685 -2.59147486 28.95658846 -11.11328125 26.01953125 C-16.38403028 24.27546256 -19.19127586 24.16254224 -24.25 26.3125 C-27.5 26.5 -27.5 26.5 -30.25 26.3125 C-32.05746134 24.50503866 -31.42303483 21.80804219 -31.4375 19.375 C-31.45167969 18.29347656 -31.46585938 17.21195313 -31.48046875 16.09765625 C-31.25 13.3125 -31.25 13.3125 -29.25 11.3125 C-27.375 11.3359375 -27.375 11.3359375 -25.25 11.6875 C-22.26341073 12.16187496 -22.26341073 12.16187496 -19.25 12.3125 C-18.6725 11.52875 -18.095 10.745 -17.5 9.9375 C-14.87457473 6.87450385 -13.00009305 6.53535643 -9.25 5.3125 C-7.88979849 3.34491727 -7.88979849 3.34491727 -7.25 1.3125 C-5.39234332 -0.54515668 -2.49167111 0.05307371 0 0 Z " fill="#733E18" transform="translate(31.25,10.6875)"/>
<path d="M0 0 C0.66 0 1.32 0 2 0 C2.33 0.99 2.66 1.98 3 3 C4.11375 3.474375 5.2275 3.94875 6.375 4.4375 C11.49971894 6.64643058 11.49971894 6.64643058 13 10 C13.51042253 13.10841585 13.6150442 15.90199959 13 19 C10.33987508 21.95569436 7.94053603 23.41621688 4 24 C-0.51609008 17.29870504 -1.66613678 10.89259658 -0.5625 2.875 C-0.376875 1.92625 -0.19125 0.9775 0 0 Z " fill="#EE9728" transform="translate(37,13)"/>
<path d="M0 0 C0.99 0.33 1.98 0.66 3 1 C3 1.99 3 2.98 3 4 C3.33 2.68 3.66 1.36 4 0 C5.65 0 7.3 0 9 0 C8.96519531 0.78503906 8.93039063 1.57007812 8.89453125 2.37890625 C8.72771596 8.85292824 9.06031037 13.24310781 12 19 C12 19.99 12 20.98 12 22 C8.61920665 22.29033531 5.37202384 22.43407528 2 22 C-1.23485828 19.08073765 -2.7761572 16.29869338 -3.203125 11.9140625 C-3.30244524 7.06392425 -3.09032832 3.99167408 0 0 Z " fill="#F59449" transform="translate(27,16)"/>
<path d="M0 0 C4.63311694 0.29891077 7.90936904 0.79735256 12 3 C12.66 2.67 13.32 2.34 14 2 C14.99 5.96 15.98 9.92 17 14 C15.948125 13.79375 14.89625 13.5875 13.8125 13.375 C9.85070118 12.98531487 8.52193524 13.46479746 5 15 C1.75 15.1875 1.75 15.1875 -1 15 C-2.80746134 13.19253866 -2.17303483 10.49554219 -2.1875 8.0625 C-2.20167969 6.98097656 -2.21585937 5.89945313 -2.23046875 4.78515625 C-2 2 -2 2 0 0 Z " fill="#E26508" transform="translate(2,22)"/>
<path d="M0 0 C2.21399303 3.79541663 3.00980198 7.75629421 4 12 C3.2575 11.690625 2.515 11.38125 1.75 11.0625 C-2.39935824 9.45933886 -5.30927197 8.84975658 -9.75 9.4375 C-10.54921875 9.53933594 -11.3484375 9.64117187 -12.171875 9.74609375 C-12.77515625 9.82988281 -13.3784375 9.91367187 -14 10 C-14 8.02 -14 6.04 -14 4 C-10.7 4.33 -7.4 4.66 -4 5 C-4 4.34 -4 3.68 -4 3 C-2 1.375 -2 1.375 0 0 Z " fill="#F26E09" transform="translate(15,24)"/>
<path d="M0 0 C-0.03480469 1.30324219 -0.03480469 1.30324219 -0.0703125 2.6328125 C-0.08835937 3.78523438 -0.10640625 4.93765625 -0.125 6.125 C-0.15980469 7.83042969 -0.15980469 7.83042969 -0.1953125 9.5703125 C0.00327891 13.05757767 0.7475199 15.7553862 2 19 C0.35 19 -1.3 19 -3 19 C-6.03901852 13.17521449 -6.3540919 8.51791392 -6 2 C-2.25 0 -2.25 0 0 0 Z " fill="#ECDED0" transform="translate(24,18)"/>
<path d="M0 0 C0.99 0.33 1.98 0.66 3 1 C3 5.29 3 9.58 3 14 C3.99 14.33 4.98 14.66 6 15 C3.69 16.32 1.38 17.64 -1 19 C-3.35199995 14.4430001 -3.62635454 10.01991396 -3 5 C-1.5 1.9375 -1.5 1.9375 0 0 Z " fill="#F99C22" transform="translate(27,16)"/>
<path d="M0 0 C1.65 0 3.3 0 5 0 C5 4.62 5 9.24 5 14 C3.35 14 1.7 14 0 14 C-0.19627391 12.41773035 -0.38165538 10.83410729 -0.5625 9.25 C-0.66691406 8.36828125 -0.77132813 7.4865625 -0.87890625 6.578125 C-0.99456676 4.11567549 -0.73638695 2.33461936 0 0 Z " fill="#F6E7D8" transform="translate(31,16)"/>
<path d="M0 0 C0.66 0.33 1.32 0.66 2 1 C1.01 2.485 1.01 2.485 0 4 C-0.45139459 6.0492094 -0.45139459 6.0492094 -0.625 8.1875 C-0.74875 9.445625 -0.8725 10.70375 -1 12 C2.96 11.34 6.92 10.68 11 10 C11.33 10.66 11.66 11.32 12 12 C7.42102388 14.19790854 4.19040052 15.49432386 -1 15 C-2.80746134 13.19253866 -2.17303483 10.49554219 -2.1875 8.0625 C-2.20167969 6.98097656 -2.21585937 5.89945313 -2.23046875 4.78515625 C-2 2 -2 2 0 0 Z " fill="#8F3E05" transform="translate(2,22)"/>
<path d="M0 0 C2.21399303 3.79541663 3.00980198 7.75629421 4 12 C0.68765616 10.83620352 -1.8898219 9.88761214 -4 7 C-4 5.68 -4 4.36 -4 3 C-2 1.25 -2 1.25 0 0 Z " fill="#F59A20" transform="translate(15,24)"/>
<path d="M0 0 C0.99 0.33 1.98 0.66 3 1 C1.68 1.33 0.36 1.66 -1 2 C-0.34 7.28 0.32 12.56 1 18 C-1.90408342 14.12788877 -2.85079464 11.59682146 -4 7 C-4.99 7.495 -4.99 7.495 -6 8 C-4.75237172 4.15314615 -3.6129609 1.97070595 0 0 Z " fill="#A45F1E" transform="translate(19,18)"/>
<path d="M0 0 C0.96254164 2.88762493 1.02820226 4.35569642 0.875 7.3125 C0.8539537 11.61997679 1.32721976 14.46503258 4 18 C7.5693717 19.44967902 7.5693717 19.44967902 11 20 C10.67 20.66 10.34 21.32 10 22 C6.75 22 6.75 22 3 21 C-1.36783069 16.29230929 -1.39966728 10.41900571 -1.23828125 4.3203125 C-1 2 -1 2 0 0 Z " fill="#4A2D1B" transform="translate(24,18)"/>
<path d="M0 0 C4.51720311 -0.36625971 4.51720311 -0.36625971 6.8125 1.375 C8 3 8 3 8 5 C6.68 4.67 5.36 4.34 4 4 C4 3.01 4 2.02 4 1 C3.34 1 2.68 1 2 1 C2 3.31 2 5.62 2 8 C1.34 7.67 0.68 7.34 0 7 C0 4.69 0 2.38 0 0 Z " fill="#984C12" transform="translate(35,12)"/>
<path d="M0 0 C0.99 0.33 1.98 0.66 3 1 C2.814375 1.78375 2.62875 2.5675 2.4375 3.375 C1.74037734 5.97089775 1.74037734 5.97089775 3 8 C1.35 7.67 -0.3 7.34 -2 7 C-2.125 4.625 -2.125 4.625 -2 2 C-1.34 1.34 -0.68 0.68 0 0 Z " fill="#F7F2EB" transform="translate(40,22)"/>
<path d="M0 0 C0.66 0.33 1.32 0.66 2 1 C2 1.33 2 1.66 2 2 C2.33 2.99 2.66 3.98 3 5 C0.125 5.1875 0.125 5.1875 -3 5 C-3.66 4.01 -4.32 3.02 -5 2 C-2.625 0.9375 -2.625 0.9375 0 0 Z " fill="#EB6909" transform="translate(32,33)"/>
<path d="M0 0 C0.66 0.33 1.32 0.66 2 1 C1.67 2.65 1.34 4.3 1 6 C-0.32 5.67 -1.64 5.34 -3 5 C-3 4.01 -3 3.02 -3 2 C-2.34 2 -1.68 2 -1 2 C-0.67 1.34 -0.34 0.68 0 0 Z " fill="#251513" transform="translate(44,23)"/>
<path d="M0 0 C-4.75 3.875 -4.75 3.875 -7 5 C-7.33 3.68 -7.66 2.36 -8 1 C-5.29120665 -0.35439668 -2.99066732 -0.06501451 0 0 Z " fill="#EB6B09" transform="translate(33,30)"/>
<path d="M0 0 C2.125 0.375 2.125 0.375 4 1 C3.01 1.33 2.02 1.66 1 2 C0.67 3.65 0.34 5.3 0 7 C-0.99 6.67 -1.98 6.34 -3 6 C-2.42655063 3.13275314 -2.1385485 2.1385485 0 0 Z " fill="#D3640F" transform="translate(26,12)"/>
</svg>
